<svg width="50" height="50" viewBox="0 0 39 39" fill="none" xmlns="http://www.w3.org/2000/svg">
<circle cx="19.5" cy="19.5" r="19.5" fill="url(#paint0_linear_32_620)"/>
<g clip-path="url(#clip0_32_620)">
<path d="M19.5 30.1755C14.1564 30.1755 9.82452 25.8436 9.82452 20.5C9.82452 15.1564 14.1564 10.8245 19.5 10.8245C24.8436 10.8245 29.1755 15.1564 29.1755 20.5C29.1755 25.8436 24.8436 30.1755 19.5 30.1755ZM19.5 31.5577C25.607 31.5577 30.5577 26.607 30.5577 20.5C30.5577 14.393 25.607 9.44231 19.5 9.44231C13.393 9.44231 8.44231 14.393 8.44231 20.5C8.44231 26.607 13.393 31.5577 19.5 31.5577Z" fill="white"/>
<path d="M20.7864 18.5482L17.6197 18.945L17.5064 19.4715L18.13 19.5848C18.5349 19.682 18.6159 19.8278 18.5268 20.2328L17.5064 25.0273C17.2391 26.2664 17.6522 26.8495 18.624 26.8495C19.3772 26.8495 20.2519 26.5013 20.6488 26.0234L20.7702 25.4484C20.4949 25.6914 20.0899 25.7886 19.8227 25.7886C19.442 25.7886 19.3043 25.5213 19.4015 25.0516L20.7864 18.5482Z" fill="white"/>
<path d="M20.8822 15.6623C20.8822 16.4256 20.2634 17.0445 19.5 17.0445C18.7366 17.0445 18.1178 16.4256 18.1178 15.6623C18.1178 14.8989 18.7366 14.28 19.5 14.28C20.2634 14.28 20.8822 14.8989 20.8822 15.6623Z" fill="white"/>
<path d="M20.7864 18.5482L21.0027 18.5942L21.0675 18.2901L20.7589 18.3287L20.7864 18.5482ZM17.6198 18.945L17.5923 18.7256L17.4366 18.7451L17.4036 18.8984L17.6198 18.945ZM17.5064 19.4715L17.2902 19.4249L17.2421 19.6482L17.4668 19.689L17.5064 19.4715ZM18.13 19.5848L18.1816 19.3698L18.1756 19.3684L18.1695 19.3672L18.13 19.5848ZM18.5268 20.2328L18.3109 20.1852L18.3106 20.1867L18.5268 20.2328ZM17.5064 25.0273L17.7225 25.0739L17.7227 25.0733L17.5064 25.0273ZM20.6488 26.0234L20.8189 26.1647L20.8538 26.1227L20.8651 26.0691L20.6488 26.0234ZM20.7702 25.4484L20.9866 25.4941L21.1246 24.8408L20.6239 25.2826L20.7702 25.4484ZM19.4015 25.0516L19.1852 25.0055L19.185 25.0068L19.4015 25.0516ZM28.9543 20.5C28.9543 25.7215 24.7215 29.9543 19.5 29.9543V30.3966C24.9658 30.3966 29.3966 25.9658 29.3966 20.5H28.9543ZM19.5 11.0457C24.7215 11.0457 28.9543 15.2785 28.9543 20.5H29.3966C29.3966 15.0342 24.9658 10.6034 19.5 10.6034V11.0457ZM10.0457 20.5C10.0457 15.2785 14.2785 11.0457 19.5 11.0457V10.6034C14.0342 10.6034 9.60337 15.0342 9.60337 20.5H10.0457ZM19.5 29.9543C14.2785 29.9543 10.0457 25.7215 10.0457 20.5H9.60337C9.60337 25.9658 14.0342 30.3966 19.5 30.3966V29.9543ZM30.3365 20.5C30.3365 26.4849 25.4849 31.3365 19.5 31.3365V31.7788C25.7292 31.7788 30.7789 26.7292 30.7789 20.5H30.3365ZM19.5 9.66346C25.4849 9.66346 30.3365 14.5151 30.3365 20.5H30.7789C30.7789 14.2708 25.7292 9.22115 19.5 9.22115V9.66346ZM8.66347 20.5C8.66347 14.5151 13.5151 9.66346 19.5 9.66346V9.22115C13.2709 9.22115 8.22116 14.2708 8.22116 20.5H8.66347ZM19.5 31.3365C13.5151 31.3365 8.66347 26.4849 8.66347 20.5H8.22116C8.22116 26.7292 13.2709 31.7788 19.5 31.7788V31.3365ZM20.7589 18.3287L17.5923 18.7256L17.6473 19.1645L20.8139 18.7676L20.7589 18.3287ZM17.4036 18.8984L17.2902 19.4249L17.7226 19.518L17.836 18.9916L17.4036 18.8984ZM17.4668 19.689L18.0904 19.8024L18.1695 19.3672L17.5459 19.2538L17.4668 19.689ZM18.0784 19.7999C18.2749 19.847 18.3145 19.8913 18.3242 19.9074C18.3356 19.9263 18.3547 19.9857 18.3109 20.1852L18.7428 20.2803C18.788 20.0748 18.8112 19.8589 18.7031 19.6793C18.5935 19.4971 18.39 19.4198 18.1816 19.3698L18.0784 19.7999ZM18.3106 20.1867L17.2901 24.9812L17.7227 25.0733L18.7432 20.2788L18.3106 20.1867ZM17.2902 24.9807C17.1523 25.6199 17.1756 26.1473 17.414 26.5218C17.6614 26.9106 18.0967 27.0707 18.624 27.0707V26.6284C18.1795 26.6284 17.9224 26.4969 17.7871 26.2844C17.6428 26.0575 17.5932 25.6738 17.7225 25.0739L17.2902 24.9807ZM18.624 27.0707C19.0324 27.0707 19.4675 26.9768 19.8531 26.8207C20.2363 26.6655 20.5895 26.4409 20.8189 26.1647L20.4786 25.8821C20.3111 26.0838 20.0286 26.2723 19.687 26.4107C19.3477 26.5481 18.9688 26.6284 18.624 26.6284V27.0707ZM20.8651 26.0691L20.9866 25.4941L20.5538 25.4027L20.4324 25.9777L20.8651 26.0691ZM20.6239 25.2826C20.3997 25.4804 20.0524 25.5674 19.8227 25.5674V26.0097C20.1275 26.0097 20.59 25.9024 20.9165 25.6143L20.6239 25.2826ZM19.8227 25.5674C19.6878 25.5674 19.6462 25.5248 19.6262 25.4887C19.5947 25.4323 19.5734 25.3123 19.6181 25.0964L19.185 25.0068C19.1324 25.2606 19.1313 25.5091 19.2397 25.7037C19.3593 25.9188 19.5769 26.0097 19.8227 26.0097V25.5674ZM19.6178 25.0977L21.0027 18.5942L20.5701 18.5021L19.1852 25.0055L19.6178 25.0977ZM20.6611 15.6623C20.6611 16.3035 20.1412 16.8233 19.5 16.8233V17.2656C20.3855 17.2656 21.1034 16.5478 21.1034 15.6623H20.6611ZM19.5 16.8233C18.8588 16.8233 18.3389 16.3035 18.3389 15.6623H17.8966C17.8966 16.5478 18.6145 17.2656 19.5 17.2656V16.8233ZM18.3389 15.6623C18.3389 15.021 18.8588 14.5012 19.5 14.5012V14.0589C18.6145 14.0589 17.8966 14.7768 17.8966 15.6623H18.3389ZM19.5 14.5012C20.1412 14.5012 20.6611 15.021 20.6611 15.6623H21.1034C21.1034 14.7768 20.3855 14.0589 19.5 14.0589V14.5012Z" fill="white"/>
</g>
<defs>
<linearGradient id="paint0_linear_32_620" x1="19.5" y1="0" x2="19.5" y2="39" gradientUnits="userSpaceOnUse">
<stop stop-color="#2C57C5"/>
<stop offset="1" stop-color="#7591D9"/>
</linearGradient>
<clipPath id="clip0_32_620">
<rect width="23" height="23" fill="white" transform="translate(8 9)"/>
</clipPath>
</defs>
</svg>
