<svg width="18" height="18" viewBox="0 0 18 18" fill="none" xmlns="http://www.w3.org/2000/svg">
<g clip-path="url(#clip0_6_280)">
<path d="M8.99998 0.359985C4.23611 0.359985 0.359985 4.23611 0.359985 8.99998C0.359985 13.7639 4.23611 17.64 8.99998 17.64C13.7639 17.64 17.64 13.7639 17.64 8.99998C17.64 4.23611 13.7639 0.359985 8.99998 0.359985ZM8.99998 16.92C4.63283 16.92 1.07999 13.3671 1.07999 8.99998C1.07999 4.63283 4.63283 1.07999 8.99998 1.07999C13.3671 1.07999 16.92 4.63283 16.92 8.99998C16.92 13.3671 13.3671 16.92 8.99998 16.92Z" fill="black"/>
<path d="M6.94543 4.21448L11.7309 8.99996L6.94543 13.7854L7.45448 14.2945L12.749 8.99996L7.45448 3.70544L6.94543 4.21448Z" fill="black"/>
</g>
<defs>
<clipPath id="clip0_6_280">
<rect width="18" height="18" fill="white"/>
</clipPath>
</defs>
</svg>
