<svg width="20" height="20" viewBox="0 0 20 20" fill="none" xmlns="http://www.w3.org/2000/svg">
<path d="M16.75 15.625H3.25C2.75 15.625 2.3125 15.375 2.0625 14.9375C1.8125 14.5 1.875 14 2.125 13.5625L2.8125 12.5C3.9375 10.8125 4.5 8.875 4.5 6.875C4.5 4.5625 6 2.4375 8.1875 1.6875C8.5625 1 9.25 0.625 10 0.625C10.75 0.625 11.4375 1 11.8125 1.6875C14 2.4375 15.5 4.5625 15.5 6.875C15.5 8.875 16.0625 10.8125 17.1875 12.5L17.875 13.5625C18.125 14 18.1875 14.5 17.9375 14.9375C17.75 15.375 17.25 15.625 16.75 15.625Z" fill="#D8D8D8"/>
<path d="M6.9375 16.875C7.25 18.3125 8.5 19.375 10 19.375C11.5 19.375 12.75 18.3125 13.0625 16.875H6.9375Z" fill="#D8D8D8"/>
</svg>
