<svg width="60" height="60" viewBox="0 0 47 47" fill="none" xmlns="http://www.w3.org/2000/svg">
<circle cx="23.5" cy="23.5" r="23.5" fill="white"/>
<path d="M24 5C18.9609 5 14.1282 7.00693 10.565 10.5793C7.00178 14.1516 5 18.9967 5 24.0488C6.045 49.3202 41.9613 49.3139 43 24.0488C43 18.9967 40.9982 14.1516 37.435 10.5793C33.8718 7.00693 29.0391 5 24 5ZM24 22.7789C31.4417 22.9694 32.4487 33.3764 25.2667 35.0527V36.748C25.2667 37.0848 25.1332 37.4078 24.8957 37.646C24.6581 37.8842 24.3359 38.0179 24 38.0179C23.6641 38.0179 23.3419 37.8842 23.1043 37.646C22.8668 37.4078 22.7333 37.0848 22.7333 36.748V35.186H19.079C18.7431 35.186 18.4209 35.0522 18.1833 34.8141C17.9458 34.5759 17.8123 34.2529 17.8123 33.9161C17.8123 33.5793 17.9458 33.2563 18.1833 33.0181C18.4209 32.78 18.7431 32.6462 19.079 32.6462H24C28.826 32.4938 28.826 25.4711 24 25.3187C16.5583 25.1282 15.545 14.7212 22.7333 13.0449V11.3496C22.7333 11.0128 22.8668 10.6898 23.1043 10.4516C23.3419 10.2135 23.6641 10.0797 24 10.0797C24.3359 10.0797 24.6581 10.2135 24.8957 10.4516C25.1332 10.6898 25.2667 11.0128 25.2667 11.3496V12.9116H28.921C29.2569 12.9116 29.5791 13.0454 29.8167 13.2836C30.0542 13.5217 30.1877 13.8447 30.1877 14.1815C30.1877 14.5183 30.0542 14.8413 29.8167 15.0795C29.5791 15.3177 29.2569 15.4514 28.921 15.4514H24C19.174 15.6102 19.174 22.6265 24 22.7789Z" fill="#7591D9"/>
</svg>
