<svg width="41" height="41" viewBox="0 0 41 41" fill="none" xmlns="http://www.w3.org/2000/svg">
<rect x="20.5" y="2.12132" width="25.9914" height="25.9914" rx="12.9957" transform="rotate(45 20.5 2.12132)" fill="#EABC5D" stroke="#F8CC58" stroke-width="3"/>
<path d="M13.7576 22.9577C13.5736 22.9577 13.3996 22.9217 13.2356 22.8497C13.0716 22.7817 12.9276 22.6857 12.8036 22.5617C12.6836 22.4417 12.5876 22.2997 12.5156 22.1357C12.4476 21.9717 12.4136 21.7977 12.4136 21.6137V19.8557H13.0736V21.5177C13.0736 21.6097 13.0896 21.6957 13.1216 21.7757C13.1576 21.8557 13.2056 21.9257 13.2656 21.9857C13.3256 22.0457 13.3956 22.0917 13.4756 22.1237C13.5556 22.1597 13.6416 22.1777 13.7336 22.1777H14.8076C14.9596 22.1777 15.0876 22.1257 15.1916 22.0217C15.2956 21.9177 15.3476 21.7897 15.3476 21.6377V19.7597H16.0076V21.7517C16.0076 21.9197 15.9756 22.0757 15.9116 22.2197C15.8476 22.3677 15.7616 22.4957 15.6536 22.6037C15.5456 22.7117 15.4176 22.7977 15.2696 22.8617C15.1256 22.9257 14.9696 22.9577 14.8016 22.9577H13.7576ZM13.8656 19.0697H14.5556V19.7597H13.8656V19.0697ZM17.9815 21.8177C17.9815 21.8737 17.9535 21.9017 17.8975 21.9017H17.7235C17.5795 21.9017 17.4435 21.8757 17.3155 21.8237C17.1875 21.7677 17.0755 21.6917 16.9795 21.5957C16.8835 21.4997 16.8075 21.3877 16.7515 21.2597C16.6955 21.1317 16.6675 20.9957 16.6675 20.8517V17.7917H17.3275V20.8337C17.3275 20.9137 17.3555 20.9817 17.4115 21.0377C17.4675 21.0937 17.5355 21.1217 17.6155 21.1217H17.8975C17.9215 21.1217 17.9415 21.1317 17.9575 21.1517C17.9735 21.1677 17.9815 21.1877 17.9815 21.2117V21.8177ZM19.2574 21.1217H20.1034V20.4617C20.1034 20.3977 20.0814 20.3437 20.0374 20.2997C19.9934 20.2557 19.9394 20.2337 19.8754 20.2337H19.3894C19.3334 20.2337 19.2854 20.2517 19.2454 20.2877C19.2054 20.3197 19.1794 20.3637 19.1674 20.4197L19.0714 20.8997C19.0594 20.9557 19.0714 21.0077 19.1074 21.0557C19.1474 21.0997 19.1974 21.1217 19.2574 21.1217ZM18.4054 20.8577L18.5254 20.2397C18.5454 20.1317 18.5834 20.0317 18.6394 19.9397C18.6994 19.8437 18.7694 19.7637 18.8494 19.6997C18.9294 19.6317 19.0194 19.5797 19.1194 19.5437C19.2234 19.5037 19.3314 19.4837 19.4434 19.4837H19.7794C19.9154 19.4837 20.0434 19.5097 20.1634 19.5617C20.2834 19.6137 20.3874 19.6837 20.4754 19.7717C20.5634 19.8597 20.6334 19.9637 20.6854 20.0837C20.7374 20.2037 20.7634 20.3317 20.7634 20.4677V21.1697C20.7634 21.2697 20.7434 21.3657 20.7034 21.4577C20.6674 21.5457 20.6154 21.6237 20.5474 21.6917C20.4834 21.7557 20.4074 21.8077 20.3194 21.8477C20.2314 21.8837 20.1374 21.9017 20.0374 21.9017H19.3414C19.2214 21.9017 19.1074 21.8777 18.9994 21.8297C18.8914 21.7777 18.7934 21.6877 18.7054 21.5597C18.6134 21.6877 18.5114 21.7777 18.3994 21.8297C18.2874 21.8777 18.1674 21.9017 18.0394 21.9017H17.8954C17.8394 21.9017 17.8114 21.8737 17.8114 21.8177V21.2057C17.8114 21.1497 17.8394 21.1217 17.8954 21.1217H18.0874C18.1674 21.1217 18.2354 21.0977 18.2914 21.0497C18.3514 21.0017 18.3894 20.9377 18.4054 20.8577ZM22.3013 21.9017C22.1533 21.9017 22.0173 21.8717 21.8933 21.8117C21.7693 21.7477 21.6653 21.6637 21.5813 21.5597C21.4973 21.4557 21.4353 21.3377 21.3953 21.2057C21.3593 21.0697 21.3553 20.9297 21.3833 20.7857L21.4853 20.2397C21.5053 20.1317 21.5433 20.0317 21.5993 19.9397C21.6593 19.8437 21.7293 19.7617 21.8093 19.6937C21.8893 19.6257 21.9793 19.5737 22.0793 19.5377C22.1833 19.4977 22.2913 19.4777 22.4033 19.4777H22.7393C22.8753 19.4777 23.0033 19.5037 23.1233 19.5557C23.2433 19.6077 23.3473 19.6797 23.4353 19.7717C23.5233 19.8597 23.5933 19.9637 23.6453 20.0837C23.6973 20.2037 23.7233 20.3317 23.7233 20.4677V21.1217H24.1433C24.1993 21.1217 24.2273 21.1497 24.2273 21.2057V21.8177C24.2273 21.8737 24.1993 21.9017 24.1433 21.9017H23.7173C23.7173 21.9057 23.7173 21.9157 23.7173 21.9317C23.7173 21.9477 23.7153 21.9677 23.7113 21.9917C23.6873 22.2557 23.5853 22.4937 23.4053 22.7057C23.2293 22.9177 23.0033 23.0717 22.7273 23.1677L21.9053 23.4497L21.7013 22.8197L22.5473 22.5377C22.6993 22.4857 22.8213 22.4017 22.9133 22.2857C23.0093 22.1697 23.0573 22.0317 23.0573 21.8717V21.8297C23.0133 21.8497 22.9593 21.8677 22.8953 21.8837C22.8313 21.8957 22.7673 21.9017 22.7033 21.9017H22.3013ZM22.2173 21.1217H23.0633V20.4617C23.0633 20.3977 23.0413 20.3437 22.9973 20.2997C22.9533 20.2517 22.8993 20.2277 22.8353 20.2277H22.3493C22.2933 20.2277 22.2453 20.2457 22.2053 20.2817C22.1653 20.3177 22.1393 20.3637 22.1273 20.4197L22.0313 20.8997C22.0193 20.9557 22.0313 21.0077 22.0673 21.0557C22.1073 21.0997 22.1573 21.1217 22.2173 21.1217ZM25.1615 21.1217C25.2415 21.1217 25.3095 21.0937 25.3655 21.0377C25.4215 20.9777 25.4495 20.9077 25.4495 20.8277V19.5857H26.1095V20.8277C26.1095 20.9757 26.0815 21.1157 26.0255 21.2477C25.9695 21.3757 25.8915 21.4897 25.7915 21.5897C25.6955 21.6857 25.5815 21.7617 25.4495 21.8177C25.3215 21.8737 25.1835 21.9017 25.0355 21.9017H24.1415C24.1175 21.9017 24.0975 21.8937 24.0815 21.8777C24.0655 21.8577 24.0575 21.8377 24.0575 21.8177V21.2117C24.0575 21.1877 24.0655 21.1677 24.0815 21.1517C24.0975 21.1317 24.1175 21.1217 24.1415 21.1217H25.1615ZM24.4175 19.0397H25.1075V18.3497H24.4175V19.0397ZM25.4195 19.0397H26.1095V18.3497H25.4195V19.0397Z" fill="white"/>
</svg>
