<svg width="50" height="50" viewBox="0 0 39 39" fill="none" xmlns="http://www.w3.org/2000/svg">
<circle cx="19.5" cy="19.5" r="19.5" fill="url(#paint0_linear_32_619)"/>
<path d="M28.5921 15.2294C27.6532 13.6208 26.3795 12.3471 24.7708 11.4082C23.1619 10.4693 21.4055 10 19.5003 10C17.5953 10 15.8384 10.4693 14.2297 11.4082C12.621 12.347 11.3473 13.6206 10.4084 15.2294C9.46934 16.8383 9 18.5952 9 20.5C9 22.405 9.46948 24.1616 10.4082 25.7706C11.3471 27.3792 12.6208 28.6528 14.2295 29.5918C15.8384 30.5307 17.5952 31 19.5001 31C21.4051 31 23.162 30.5307 24.7708 29.5918C26.3795 28.6532 27.6531 27.3792 28.5919 25.7706C29.5307 24.1617 30 22.4049 30 20.5C30 18.595 29.5307 16.838 28.5921 15.2294ZM21.2504 27.0625C21.2504 27.19 21.2092 27.2949 21.1272 27.3768C21.0456 27.4588 20.9407 27.4998 20.8132 27.4998H18.1879C18.0604 27.4998 17.9555 27.4588 17.8734 27.3768C17.7914 27.2949 17.7504 27.19 17.7504 27.0625V24.4372C17.7504 24.3098 17.7913 24.2048 17.8734 24.123C17.9555 24.0412 18.0604 24.0002 18.1879 24.0002H20.8132C20.9407 24.0002 21.0456 24.0412 21.1272 24.123C21.2092 24.2049 21.2504 24.3098 21.2504 24.4372V27.0625ZM24.5794 18.9823C24.4654 19.3196 24.3379 19.5955 24.1966 19.8096C24.0554 20.0238 23.8525 20.2426 23.588 20.4658C23.3242 20.6891 23.1144 20.8487 22.959 20.9446C22.8044 21.0401 22.5808 21.1702 22.2895 21.3341C21.9886 21.5071 21.7405 21.7328 21.5446 22.011C21.3486 22.2889 21.2506 22.5144 21.2506 22.6874C21.2506 22.8153 21.2093 22.9201 21.1274 23.0021C21.0456 23.084 20.9408 23.1249 20.8132 23.1249H18.1881C18.0605 23.1249 17.9556 23.084 17.8736 23.0021C17.7915 22.9201 17.7506 22.8153 17.7506 22.6874V22.1952C17.7506 21.5845 17.9897 21.0123 18.4683 20.4793C18.9469 19.946 19.4733 19.5518 20.0476 19.2966C20.4848 19.0961 20.7948 18.891 20.977 18.6814C21.1596 18.4718 21.2507 18.1935 21.2507 17.8473C21.2507 17.5465 21.0797 17.2776 20.7378 17.0405C20.3959 16.8036 20.0066 16.6851 19.5689 16.6851C19.0949 16.6851 18.703 16.7945 18.3931 17.0134C18.0922 17.232 17.7004 17.6513 17.2173 18.271C17.1352 18.3805 17.0213 18.4353 16.8754 18.4353C16.766 18.4353 16.6794 18.408 16.6157 18.3535L14.8111 16.9862C14.6015 16.8221 14.565 16.6308 14.7016 16.412C15.8684 14.4706 17.5591 13.4999 19.7739 13.4999C20.567 13.4999 21.3419 13.6868 22.0984 14.0605C22.8548 14.4341 23.4861 14.9628 23.9921 15.6465C24.4975 16.3299 24.7509 17.0729 24.7509 17.875C24.7502 18.276 24.693 18.645 24.5794 18.9823Z" fill="white"/>
<defs>
<linearGradient id="paint0_linear_32_619" x1="19.5" y1="0" x2="19.5" y2="39" gradientUnits="userSpaceOnUse">
<stop stop-color="#2C57C5"/>
<stop offset="1" stop-color="#7591D9"/>
</linearGradient>
</defs>
</svg>
