<svg width="50" height="50" viewBox="0 0 39 39" fill="none" xmlns="http://www.w3.org/2000/svg">
<circle cx="19.5" cy="19.5" r="19.5" fill="url(#paint0_linear_31_618)"/>
<g clip-path="url(#clip0_31_618)">
<path d="M27.5343 16.9888C27.4721 14.8982 26.5979 12.9141 25.0971 11.4574C23.5964 10.0006 21.5871 9.1858 19.4956 9.18576C17.4041 9.18572 15.3949 10.0005 13.8941 11.4572C12.3933 12.9139 11.519 14.898 11.4567 16.9885C9.93513 17.3186 9.07938 18.6865 9.07938 20.8536C9.07938 23.3591 10.2233 24.7964 12.2177 24.7964C12.4303 24.7964 12.6343 24.7123 12.785 24.5624C12.9358 24.4125 13.0211 24.209 13.0224 23.9964L13.0625 17.2325C13.0625 16.3868 13.2291 15.5493 13.5529 14.7679C13.8767 13.9866 14.3513 13.2767 14.9495 12.6789C15.5478 12.081 16.2579 11.6069 17.0395 11.2837C17.8211 10.9604 18.6587 10.7944 19.5044 10.795C20.3502 10.7955 21.1875 10.9628 21.9686 11.2871C22.7497 11.6115 23.4593 12.0866 24.0567 12.6853C24.6541 13.284 25.1277 13.9945 25.4504 14.7763C25.773 15.5581 25.9385 16.3958 25.9373 17.2416L26.0179 24.3941C26.0179 26.1577 24.3156 27.1 20.9599 27.2005C20.7596 26.8739 20.4558 26.6238 20.0969 26.4899C19.738 26.3559 19.3446 26.3459 18.9794 26.4615C18.6141 26.577 18.298 26.8113 18.0814 27.1273C17.8648 27.4432 17.76 27.8226 17.7839 28.2049C17.8078 28.5872 17.9589 28.9506 18.2132 29.2371C18.4674 29.5236 18.8102 29.7169 19.187 29.786C19.5638 29.8552 19.9529 29.7963 20.2923 29.6188C20.6318 29.4413 20.9021 29.1553 21.0602 28.8064C26.1754 28.631 27.4908 26.5677 27.6159 24.6978C29.0903 24.3381 29.9206 22.9814 29.9206 20.8536C29.9206 18.6828 29.0606 17.3159 27.5343 16.9888Z" fill="white"/>
<path d="M18.1563 20.2573C18.0879 20.0204 18.0833 19.7695 18.143 19.5302C18.2028 19.2909 18.3248 19.0717 18.4966 18.8948C18.6684 18.7178 18.884 18.5894 19.1214 18.5227C19.3589 18.456 19.6097 18.4532 19.8486 18.5147C20.0875 18.5762 20.3058 18.6998 20.4815 18.8729C20.6572 19.046 20.7839 19.2625 20.849 19.5004C20.914 19.7384 20.9149 19.9892 20.8517 20.2276C20.7884 20.466 20.6632 20.6835 20.4888 20.8579L18.9972 22.3498V24.9162C18.9972 25.0496 19.0502 25.1776 19.1445 25.2719C19.2388 25.3662 19.3667 25.4192 19.5001 25.4192C19.6335 25.4192 19.7614 25.3662 19.8557 25.2719C19.95 25.1776 20.003 25.0496 20.003 24.9162V22.7663L21.2 21.5691C21.4998 21.2692 21.7149 20.8955 21.8236 20.4857C21.9323 20.0759 21.9307 19.6447 21.819 19.2357C21.7073 18.8268 21.4894 18.4546 21.1874 18.157C20.8855 17.8594 20.5102 17.6469 20.0997 17.5411C19.6891 17.4353 19.2579 17.44 18.8498 17.5546C18.4416 17.6692 18.071 17.8898 17.7755 18.1938C17.4801 18.4979 17.2703 18.8746 17.1674 19.2859C17.0646 19.6972 17.0723 20.1284 17.1898 20.5357C17.208 20.5992 17.2386 20.6586 17.2797 20.7103C17.3209 20.762 17.3718 20.8051 17.4297 20.8371C17.4875 20.8691 17.5511 20.8894 17.6167 20.8969C17.6824 20.9043 17.7489 20.8987 17.8124 20.8804C17.8759 20.8621 17.9352 20.8315 17.9869 20.7902C18.0386 20.749 18.0816 20.698 18.1135 20.6402C18.1455 20.5823 18.1657 20.5187 18.1731 20.453C18.1804 20.3873 18.1747 20.3208 18.1563 20.2573Z" fill="white"/>
</g>
<defs>
<linearGradient id="paint0_linear_31_618" x1="19.5" y1="0" x2="19.5" y2="39" gradientUnits="userSpaceOnUse">
<stop stop-color="#2C57C5"/>
<stop offset="1" stop-color="#7591D9"/>
</linearGradient>
<clipPath id="clip0_31_618">
<rect width="21" height="21" fill="white" transform="translate(9 9)"/>
</clipPath>
</defs>
</svg>
