<svg width="21" height="21" viewBox="0 0 21 21" fill="none" xmlns="http://www.w3.org/2000/svg">
<path d="M19.425 3.4125C19.2281 3.28125 19.0312 3.21562 18.8344 3.34687C16.0125 4.26562 13.125 3.54375 10.9594 1.50938C10.6969 1.24688 10.3031 1.24688 10.0406 1.50938C7.875 3.54375 4.9875 4.26562 2.16562 3.34687C1.96875 3.21562 1.77188 3.28125 1.575 3.4125C1.44375 3.54375 1.3125 3.74062 1.3125 3.9375C1.3125 14.2406 5.84063 17.6531 10.2375 19.6219C10.3031 19.6875 10.4344 19.6875 10.5 19.6875C10.5656 19.6875 10.6969 19.6875 10.7625 19.6219C15.1594 17.6531 19.6875 14.2406 19.6875 3.9375C19.6875 3.74062 19.5562 3.54375 19.425 3.4125ZM14.2406 8.99062L10.3031 12.9281C10.1719 13.0594 10.0406 13.125 9.84375 13.125C9.64688 13.125 9.51562 13.0594 9.38438 12.9281L7.41563 10.9594C7.15313 10.6969 7.15313 10.3031 7.41563 10.0406C7.67812 9.77812 8.07188 9.77812 8.33437 10.0406L9.84375 11.55L13.3219 8.07188C13.5844 7.80938 13.9781 7.80938 14.2406 8.07188C14.5031 8.33437 14.5031 8.72813 14.2406 8.99062Z" fill="white"/>
</svg>
