<svg width="30" height="30" viewBox="0 0 92 92" fill="none" xmlns="http://www.w3.org/2000/svg">
<g clip-path="url(#clip0_111_4)">
<path fill-rule="evenodd" clip-rule="evenodd" d="M76.9091 87.9039H15.1446C6.7908 87.9039 -0.0539551 81.1131 -0.0539551 72.8131C-0.0539551 71.1424 0.269419 69.5255 0.808376 67.9625C1.07786 67.0463 1.50902 66.0762 2.04798 65.1599L32.8224 11.911C33.7387 10.2941 34.8166 8.9467 36.1101 7.86878L36.2718 7.7071L36.3257 7.59931C41.1224 3.50323 48.0749 2.91038 53.6801 6.03633C55.9976 7.38372 57.8839 9.32397 59.5547 12.1804L90.0058 65.1599C91.2454 67.4236 91.946 69.9567 91.9999 72.6514V72.7592C92.1077 76.6936 90.5448 80.5202 87.6883 83.4306C84.8318 86.341 81.0052 87.9039 76.9091 87.9039Z" fill="#FF3535"/>
<path fill-rule="evenodd" clip-rule="evenodd" d="M76.9092 81.5442H15.1447C10.348 81.5442 6.41357 77.6637 6.41357 72.867C6.41357 71.8969 6.52137 70.9268 6.89864 70.0644L7.00643 69.795C7.16811 69.3638 7.27591 68.9326 7.59928 68.4476L38.3737 15.2525C38.8588 14.2824 39.5056 13.4739 40.314 12.8811L40.3679 12.7733L40.4757 12.7194C43.2783 10.2941 47.2665 10.0246 50.3925 11.8032C51.9555 12.7194 53.249 14.0668 53.9496 15.6298L84.4546 68.5554C85.2091 69.9567 85.5864 71.4118 85.5864 72.867C85.5864 77.6637 81.7059 81.5442 76.9092 81.5442Z" fill="#FF4141"/>
<path fill-rule="evenodd" clip-rule="evenodd" d="M45.9729 50.2308C43.2781 50.2308 41.0684 48.0211 41.0684 45.2724V30.0199C41.0684 27.3251 43.2242 25.0615 45.9729 25.0615C48.7754 25.0615 50.9313 27.3251 50.9313 30.0199V45.2724C50.9313 47.9672 48.6677 50.2308 45.9729 50.2308Z" fill="white"/>
<path fill-rule="evenodd" clip-rule="evenodd" d="M45.9731 66.9924C42.7932 66.9924 40.1523 64.3515 40.1523 61.0638C40.1523 57.8301 42.7932 55.2431 45.9731 55.2431C49.2068 55.2431 51.8477 57.8301 51.8477 61.0638C51.8477 64.3515 49.2068 66.9924 45.9731 66.9924Z" fill="white"/>
</g>
<defs>
<clipPath id="clip0_111_4">
<rect width="92" height="92" fill="white"/>
</clipPath>
</defs>
</svg>
